<?xml version="1.0" encoding="UTF-8" standalone="no"?>
<!-- Created with Inkscape (http://www.inkscape.org/) -->

<svg
   width="24"
   height="24"
   viewBox="0 0 6.3499999 6.3499999"
   version="1.1"
   id="svg1"
   xmlns="http://www.w3.org/2000/svg"
   xmlns:svg="http://www.w3.org/2000/svg">
  <defs
     id="defs1" />
  <g
     id="layer1">
    <path
       id="rect1"
       style="stroke-width:6"
       d="M 1.8108371,1.6689302e-7 H 4.5391632 C 5.5423668,1.6689302e-7 6.3500001,0.80763348 6.3500001,1.8108371 v 2.7283261 c 0,1.0032036 -0.8076333,1.8108369 -1.8108369,1.8108369 H 1.8108371 C 0.80763348,6.3500001 1.6689302e-7,5.5423668 1.6689302e-7,4.5391632 V 1.8108371 C 1.6689302e-7,0.80763348 0.80763348,1.6689302e-7 1.8108371,1.6689302e-7 Z" />
    <path
       id="rect2"
       style="fill:#ff0000;stroke:none;stroke-width:6;stroke-dasharray:none"
       d="M 4.341808,0.54952095 3.0422182,1.9148599 1.6621258,0.60083735 C 1.0236854,0.77259545 0.55625612,1.353165 0.55625612,2.0473205 v 0.086917 L 1.7506467,3.2712183 0.57036813,4.5111525 C 0.66474939,5.2030147 1.2277893,5.7413036 1.931217,5.798234 L 3.1073265,4.5631106 4.4072365,5.800479 C 5.1162002,5.7566216 5.6887243,5.22439 5.7937441,4.534245 L 4.3988975,3.2064313 5.7821976,1.7532129 C 5.6480739,1.0741398 5.0579943,0.56322235 4.341808,0.54952095 Z" />
  </g>
</svg>
