<?xml version="1.0" encoding="UTF-8" standalone="no"?>
<svg
   width="14"
   height="14"
   viewBox="0 0 1792 1792"
   version="1.1"
   id="svg1"
   xmlns="http://www.w3.org/2000/svg"
   xmlns:svg="http://www.w3.org/2000/svg">
  <defs
     id="defs1" />
  <rect
     style="opacity:0.987277;fill:#d4aa00;stroke:none;stroke-width:0"
     id="rect1"
     width="1177.0968"
     height="1001.3019"
     x="307.4516"
     y="790.69812"
     ry="177.74637"
     rx="177.74637" />
  <path
     id="rect2"
     style="opacity:0.987277;fill:#d4aa00;stroke:none;stroke-width:0"
     d="m 896,16 a 350.1196,272.22874 0 0 0 -350.02487,272.25 350.1196,272.22874 0 0 0 1.17557,15 h -1.17557 v 483 H 694.97816 V 408.5 h 0.58778 A 201.1593,212.93929 0 0 1 694.97816,396.75 201.1593,212.93929 0 0 1 896,183.75 a 201.1593,212.93929 0 0 1 201.0219,213 201.1593,212.93929 0 0 1 -0.5878,11.75 h 0.5878 v 377.75 h 149.003 v -483 h -1.1756 a 350.1196,272.22874 0 0 0 1.1756,-15 A 350.1196,272.22874 0 0 0 896,16 Z" />
  <path
     id="rect3"
     style="opacity:0.493478;fill:#ffffff;stroke-width:0"
     d="m 896.11084,1113.4452 a 113.53259,112.41142 0 0 0 -113.67512,112.3457 113.53259,112.41142 0 0 0 63.59595,100.823 h -0.44317 l -71.79482,349.8889 h 244.41262 l -69.80043,-349.8889 h -1.99434 a 113.53259,112.41142 0 0 0 63.15287,-100.823 113.53259,112.41142 0 0 0 -113.45356,-112.3457 z" />
</svg>
