<?xml version="1.0" encoding="UTF-8" standalone="no"?>
<!-- Created with Inkscape (http://www.inkscape.org/) -->

<svg
   width="8.9243565"
   height="12.999946"
   viewBox="0 0 2.3612362 3.4395689"
   version="1.1"
   id="svg1"
   xmlns="http://www.w3.org/2000/svg"
   xmlns:svg="http://www.w3.org/2000/svg">
  <defs
     id="defs1" />
  <g
     id="layer1"
     transform="translate(-143.48107,-153.72949)">
    <g
       id="g20"
       transform="translate(32.679703,-10.297385)">
      <path
         id="path18"
         style="opacity:1;fill:#ffcc00;stroke-width:0.856001"
         d="m 113.13807,166.40832 c 0,0.3408 0.10337,0.70486 -0.11427,0.9282 -0.21764,0.22333 -0.72456,0.06 -1.05666,0.06 -0.33211,0 -0.74284,0.1653 -1.00708,-0.0124 -0.21952,-0.14764 -0.14733,-0.6598 -0.14733,-1.0006 0,-0.3408 0.71264,-0.93405 0.93028,-1.27043 0.10882,-0.16819 -0.79121,-0.7278 -0.62948,-1.00969 0.16174,-0.28189 0.65725,0.30575 0.8233,0.30575 0.16606,0 0.72228,-0.51014 0.86616,-0.23296 0.14389,0.27718 -0.74256,0.81795 -0.63375,0.92962 0.21764,0.22334 0.96883,0.96171 0.96883,1.30251 z" />
      <path
         d="m 112.37268,166.22901 -0.12478,0.0125 q -0.0166,-0.11437 -0.0853,-0.17884 -0.0665,-0.0665 -0.1726,-0.0873 v 0.28282 q 0.0873,0.0166 0.16636,0.0374 0.079,0.0187 0.13933,0.0562 0.0603,0.0353 0.0957,0.0915 0.0354,0.0562 0.0354,0.14349 0,0.0853 -0.0354,0.14557 -0.0333,0.0582 -0.0936,0.0957 -0.0582,0.0374 -0.13933,0.0541 -0.079,0.0166 -0.16844,0.0166 v 0.24331 h -0.0894 v -0.24955 q -0.0582,-0.008 -0.10189,-0.025 -0.0437,-0.0166 -0.0749,-0.0312 -0.0312,-0.0166 -0.0541,-0.0291 -0.0208,-0.0125 -0.0354,-0.0125 -0.0416,0 -0.0416,0.0499 v 0.0353 l -0.12893,0.006 v -0.3868 l 0.12061,-0.0125 q 0.0187,0.11438 0.10814,0.18924 0.0894,0.0728 0.20795,0.0936 v -0.29529 q -0.0977,-0.0187 -0.17884,-0.0416 -0.079,-0.0229 -0.13725,-0.0603 -0.0562,-0.0374 -0.0873,-0.0936 -0.0312,-0.0582 -0.0312,-0.14349 0,-0.13726 0.0977,-0.21628 0.0977,-0.079 0.28075,-0.079 0.0145,0 0.027,0.002 0.0146,0 0.0291,0.002 v -0.24747 h 0.0894 v 0.26202 q 0.0374,0.0104 0.0707,0.025 0.0333,0.0145 0.0603,0.0291 0.0291,0.0125 0.0499,0.0229 0.0229,0.008 0.0354,0.008 0.0229,0 0.0333,-0.0229 0.0104,-0.0229 0.0166,-0.0603 h 0.11646 z m -0.38264,0.549 q 0.10813,0 0.15596,-0.0374 0.0499,-0.0395 0.0499,-0.0998 0,-0.0707 -0.0603,-0.1019 -0.0582,-0.0312 -0.14557,-0.0478 z m -0.0894,-0.81103 q -0.0873,0 -0.14764,0.027 -0.0582,0.027 -0.0582,0.0936 0,0.0707 0.0582,0.10397 0.0603,0.0312 0.14764,0.0478 z"
         id="text20"
         style="font-size:2.07957px;font-family:Superclarendon;-inkscape-font-specification:'Superclarendon, Normal';fill:#1a1a1a;stroke-width:0.856001"
         aria-label="$" />
      <rect
         style="opacity:1;fill:#501616;fill-opacity:1;stroke:none;stroke-width:0.856001;stroke-dasharray:none;stroke-opacity:1"
         id="rect20"
         width="0.54089868"
         height="0.13968298"
         x="111.71153"
         y="164.96355" />
    </g>
  </g>
</svg>
